<?xml version="1.0" encoding="utf-8"?>
<!-- Generator: Adobe Illustrator 19.1.0, SVG Export Plug-In . SVG Version: 6.00 Build 0)  -->
<svg version="1.1" id="Layer_1" xmlns="http://www.w3.org/2000/svg" xmlns:xlink="http://www.w3.org/1999/xlink" x="0px" y="0px"
	 viewBox="0 0 175 50" style="enable-background:new 0 0 175 50;" xml:space="preserve">
<metadata><?xpacket begin="﻿" id="W5M0MpCehiHzreSzNTczkc9d"?>
<x:xmpmeta xmlns:x="adobe:ns:meta/" x:xmptk="Adobe XMP Core 5.6-c067 79.157747, 2015/03/30-23:40:42        ">
   <rdf:RDF xmlns:rdf="http://www.w3.org/1999/02/22-rdf-syntax-ns#">
      <rdf:Description rdf:about=""/>
   </rdf:RDF>
</x:xmpmeta>
                                                                                                    
                                                                                                    
                                                                                                    
                                                                                                    
                                                                                                    
                                                                                                    
                                                                                                    
                                                                                                    
                                                                                                    
                                                                                                    
                                                                                                    
                                                                                                    
                                                                                                    
                                                                                                    
                                                                                                    
                                                                                                    
                                                                                                    
                                                                                                    
                                                                                                    
                                                                                                    
                           
<?xpacket end="w"?></metadata>
<style type="text/css">
	.st0{fill:#35A8E0;}
	.st1{fill:#FFCE36;}
	.st2{fill:#93C01F;}
	.st3{fill:#337ABD;}
</style>
<g>
	<g>
		<path class="st0" d="M59.7,22.1l6.7,18.8h-4.1L61.1,37h-7.3l-1.2,3.8h-4.1l6.3-17.5c0.3-0.8,0.9-1.2,1.8-1.2H59.7z M54.9,33.8H60
			l-2.6-8L54.9,33.8z"/>
		<path class="st0" d="M74.9,41.2c-4.4,0-6.7-2.5-6.8-7.6c0-5,2.2-7.5,6.7-7.6c3.5,0,5.6,1.6,6.3,4.8h-4c-0.4-1-1.2-1.5-2.4-1.5
			c-1.9,0-2.9,1.5-2.9,4.4c0,2.9,1,4.4,3.1,4.3c0.9,0,1.6-0.4,2.2-1c0.4-0.4,0.8-0.5,1.2-0.5h2.8C80.5,39.3,78.3,41.3,74.9,41.2z"/>
		<path class="st0" d="M89.9,29.3c-2.2,0-3.1,1.8-3.1,4.1v7.5h-3.7V22.1h1.9c1.2,0,1.8,0.6,1.8,1.9v4.4c1.9-2.2,4.2-2.8,6.9-1.8
			c2,0.7,3,2.7,2.9,5.9v8.5h-3.6v-7.5C92.9,30.9,92,29.3,89.9,29.3z"/>
		<path class="st0" d="M105,41.2c-4.4-0.1-6.6-2.7-6.6-7.7c0-5,2.2-7.5,6.7-7.5c4.6,0,6.8,2.8,6.5,8.6h-9.4c0.1,2.2,1.1,3.4,2.9,3.4
			c0.9,0,1.7-0.4,2.4-1c0.3-0.4,0.7-0.5,1.2-0.5h2.7C110.5,39.5,108.5,41.2,105,41.2z M102.2,31.9h5.5c-0.2-1.9-1.1-2.9-2.7-2.9
			S102.4,30,102.2,31.9z"/>
		<path class="st0" d="M115.2,22.1c1.2,0,1.8,0.6,1.8,1.8v1.1h-3.7v-2.9H115.2z M115.2,26.2c1.2,0,1.8,0.6,1.8,1.8v12.8h-3.7V26.2
			H115.2z"/>
		<path class="st1" d="M125.7,32.5v1.8h-6.8v-1.8H125.7z"/>
		<path class="st2" d="M136.1,34.2h-4.8v6.7h-3.8V24.1c0-1.1,0.9-2,1.9-2h6.4c4,0,6,2.1,6,6C141.9,31.8,139.8,34.2,136.1,34.2z
			 M135.1,30.8c1.9,0,2.9-0.9,2.9-2.7c0-1.8-0.9-2.7-2.7-2.7h-3.9v5.4H135.1z"/>
		<path class="st2" d="M150.1,41.2c-4.4-0.1-6.6-2.7-6.6-7.7c0-5,2.2-7.5,6.7-7.5c4.6,0,6.8,2.8,6.5,8.6h-9.4
			c0.1,2.2,1.1,3.4,2.9,3.4c0.9,0,1.7-0.4,2.4-1c0.3-0.4,0.7-0.5,1.2-0.5h2.7C155.7,39.5,153.7,41.2,150.1,41.2z M147.3,31.9h5.5
			c-0.2-1.9-1.1-2.9-2.7-2.9S147.6,30,147.3,31.9z"/>
		<path class="st2" d="M162.5,28.9h-0.4v8.1c0,0.6,0.4,0.9,1.1,0.9h1.1v2.8c-1.2,0.1-2.5,0.1-3.9,0s-2-1-2-2.6v-16h1.9
			c1,0,1.8,0.9,1.8,1.9v2.3h2.2V27C164.3,28.1,163.5,28.9,162.5,28.9z"/>
	</g>
</g>
<g>
	<path class="st3" d="M21.6,21.4c-1.9,0.3-3.2,1.9-3.1,3.8c0,0.1,0,0.4,0,0.4c0.2,1.3,1.3,2.2,2.5,2.2c0.1,0,0.2,0,0.4,0l0.1,0
		c1.4-0.2,2.4-1.5,2.2-2.9l-0.5-3.7L21.6,21.4z M21.6,21.4"/>
	<path class="st3" d="M36.7,19.6c-1.4-1.4-3.1-2.5-4.9-3.3c-0.5-0.2-1-0.4-1.6-0.6L28.8,17l0.2,1.2l0.1,0.3c2,0.6,3.9,1.7,5.5,3.2
		c2.3,2.3,3.6,5.3,3.7,8.6c0,0.1,0,0.1,0,0.2c0,6.9-5.6,12.5-12.5,12.5h-0.2l0-0.5c0-0.2,0.1-0.4,0.3-0.5l2.4-0.9
		c0,0,1.2,0.1,1.6-0.8l0.6-1.1c0.1-0.2,0.1-0.5-0.1-0.7c-0.6-0.5-1.4-1.4-1.5-2c-0.1-1.1-1.6-2-3.6-2.1c0,0-1.1-0.8-1.2-2.2
		c0-0.2-0.1-0.4-0.3-0.4c-0.5,0.1-1.4,0.8-1.5,3.9c0,0-2.8,1.4-3,5.5c-0.2-0.1-0.4-0.3-0.7-0.4c0.1-1.2,0.4-2.2,0.8-2.9
		c0.7-1.5,1.7-2.3,2.3-2.6c0.1-3,1.1-3.9,1.9-4.1c0.3-0.1,0.5,0,0.7,0.1c0.2,0.2,0.4,0.5,0.4,0.8c0,0.8,0.5,1.4,0.8,1.6
		c0.4,0,0.7,0.1,1.1,0.2l0-0.3l0.3-2.5c0-0.4,0.4-0.8,0.8-0.8c1.6-0.2,5.1-1.2,5.3-5c0-0.1,0-0.3,0-0.4c0-0.3-0.2-0.6-0.5-0.6
		l-3.6-0.8c0,0-2-2.5-5.1-2.4l0.5,3.7c0.3,1.8-1,3.4-2.8,3.7l-0.1,0c-0.2,0-0.3,0-0.5,0c-0.8,0-1.5-0.3-2.1-0.8
		c-0.3-0.2-0.5-0.5-0.7-0.8l0,2.7c0,3.2-4.1,5.8-4.1,5.8c-0.6-1.5-1-3.1-1-4.8c0-0.1,0-0.1,0-0.2c0.1-3.2,1.4-6.3,3.7-8.6
		c1.5-1.5,3.4-2.6,5.4-3.2l0.1-0.3l0.2-1.2l-1.3-1.2c-0.5,0.2-1,0.3-1.5,0.6c-1.8,0.8-3.5,1.9-4.9,3.3c-1.4,1.4-2.5,3.1-3.3,4.9
		c-0.8,1.9-1.2,3.9-1.2,6c0,2.1,0.4,4.1,1.2,6c0.8,1.8,1.9,3.5,3.3,4.9c1.4,1.4,3.1,2.5,4.9,3.3c1.9,0.8,3.9,1.2,6,1.2
		c2.1,0,4.1-0.4,6-1.2c1.8-0.8,3.5-1.9,4.9-3.3c1.4-1.4,2.5-3.1,3.3-4.9c0.8-1.9,1.2-3.9,1.2-6c0-2.1-0.4-4.1-1.2-6
		C39.2,22.7,38.1,21,36.7,19.6L36.7,19.6z M27.4,36.7c0.2,0,0.4,0.2,0.4,0.4v0c0,0.2-0.2,0.4-0.4,0.4c-0.2,0-0.4-0.2-0.4-0.4v0
		C27,36.9,27.2,36.7,27.4,36.7L27.4,36.7z M27,24.4c0.2,0,0.4,0.2,0.4,0.4c0,0.2-0.2,0.4-0.4,0.4c-0.2,0-0.4-0.2-0.4-0.4
		C26.6,24.6,26.8,24.4,27,24.4L27,24.4z M27,24.4"/>
	<path class="st2" d="M29.7,5.7c-2.2-2.2-5.8-2.2-8,0c-2,2-2.2,5.7-0.5,8l4.5,6.5l4.5-6.5C31.9,11.4,31.7,7.7,29.7,5.7z M25.7,11.5
		c-1.2,0-2.2-1-2.2-2.2c0-1.2,1-2.2,2.2-2.2c1.2,0,2.2,1,2.2,2.2S26.9,11.5,25.7,11.5z"/>
</g>
</svg>
