<?xml version="1.0" encoding="utf-8"?>
<!-- Generator: Adobe Illustrator 19.1.0, SVG Export Plug-In . SVG Version: 6.00 Build 0)  -->
<svg version="1.1" id="Layer_1" xmlns="http://www.w3.org/2000/svg" xmlns:xlink="http://www.w3.org/1999/xlink" x="0px" y="0px"
	 viewBox="0 0 175 50" style="enable-background:new 0 0 175 50;" xml:space="preserve">
<metadata><?xpacket begin="﻿" id="W5M0MpCehiHzreSzNTczkc9d"?>
<x:xmpmeta xmlns:x="adobe:ns:meta/" x:xmptk="Adobe XMP Core 5.6-c067 79.157747, 2015/03/30-23:40:42        ">
   <rdf:RDF xmlns:rdf="http://www.w3.org/1999/02/22-rdf-syntax-ns#">
      <rdf:Description rdf:about=""/>
   </rdf:RDF>
</x:xmpmeta>
                                                                                                    
                                                                                                    
                                                                                                    
                                                                                                    
                                                                                                    
                                                                                                    
                                                                                                    
                                                                                                    
                                                                                                    
                                                                                                    
                                                                                                    
                                                                                                    
                                                                                                    
                                                                                                    
                                                                                                    
                                                                                                    
                                                                                                    
                                                                                                    
                                                                                                    
                                                                                                    
                           
<?xpacket end="w"?></metadata>
<style type="text/css">
	.st0{fill:#337ABD;}
	.st1{fill:#93C01F;}
	.st2{fill:#35A8E0;}
	.st3{fill:#FFCE36;}
</style>
<g>
	<g>
		<path class="st0" d="M23.7,23.9h-8.6c-0.6,0-1.2,0.5-1.2,1.2v17.4c0,0.6,0.5,1.2,1.2,1.2h8.6c0.6,0,1.2-0.5,1.2-1.2V25.1
			C24.9,24.4,24.4,23.9,23.7,23.9z M17.8,24.9c0-0.2,0.2-0.3,0.3-0.3h1.4c0.2,0,0.3,0.2,0.3,0.3c0,0.2-0.2,0.3-0.3,0.3h-1.4
			C17.9,25.3,17.8,25.1,17.8,24.9z M19.5,43c-0.6,0-1-0.5-1-1c0-0.6,0.5-1,1-1c0.6,0,1,0.5,1,1C20.5,42.5,20,43,19.5,43z M20.8,25.3
			h-0.3c-0.2,0-0.3-0.2-0.3-0.3c0-0.2,0.2-0.3,0.3-0.3h0.3c0.2,0,0.3,0.2,0.3,0.3C21.2,25.1,21,25.3,20.8,25.3z"/>
		<path class="st0" d="M12.1,30c-0.1,0-0.2,0-0.2-0.1c-0.5-0.5-0.9-1.3-0.9-2.1c0-0.8,0.3-1.5,0.9-2.1c0.1-0.1,0.3-0.1,0.5,0
			c0.1,0.1,0.1,0.3,0,0.5c-0.4,0.4-0.7,1-0.7,1.6c0,0.6,0.2,1.2,0.7,1.6c0.1,0.1,0.1,0.3,0,0.5C12.3,30,12.2,30,12.1,30L12.1,30z
			 M12.1,30"/>
		<rect x="14" y="25.9" class="st0" width="10.9" height="14.3"/>
		<path class="st0" d="M10.7,30.8c-0.1,0-0.2,0-0.2-0.1c-1.5-1.5-1.5-4,0-5.6c0.1-0.1,0.3-0.1,0.5,0c0.1,0.1,0.1,0.3,0,0.5
			c-1.3,1.3-1.3,3.3,0,4.6c0.1,0.1,0.1,0.3,0,0.5C10.8,30.8,10.7,30.8,10.7,30.8L10.7,30.8z M10.7,30.8"/>
		<path class="st0" d="M26.8,30.1c-0.1,0-0.2,0-0.2-0.1c-0.1-0.1-0.1-0.3,0-0.5c0.4-0.4,0.7-1,0.7-1.6c0-0.6-0.2-1.2-0.7-1.6
			c-0.1-0.1-0.1-0.3,0-0.5c0.1-0.1,0.3-0.1,0.5,0c0.5,0.5,0.9,1.3,0.9,2.1c0,0.8-0.3,1.5-0.9,2.1C27,30.1,26.9,30.1,26.8,30.1
			L26.8,30.1z M26.8,30.1"/>
		<path class="st0" d="M28.3,30.8c-0.1,0-0.2,0-0.2-0.1c-0.1-0.1-0.1-0.3,0-0.5c1.3-1.3,1.3-3.3,0-4.6c-0.1-0.1-0.1-0.3,0-0.5
			c0.1-0.1,0.3-0.1,0.5,0c1.5,1.5,1.5,4,0,5.6C28.4,30.8,28.4,30.8,28.3,30.8L28.3,30.8z M28.3,30.8"/>
	</g>
	<g>
		<path class="st0" d="M8.2,34.6c-0.6-1.5-1-3.1-1-4.7c0-0.1,0-0.1,0-0.2c0.1-3.2,1.3-6.1,3.6-8.4c1.5-1.5,3.3-2.6,5.3-3.1l0-0.3
			l0.2-1.2l-1.2-1.2c-0.5,0.2-1,0.3-1.5,0.5c-1.8,0.8-3.4,1.9-4.8,3.2c-1.4,1.4-2.5,3-3.2,4.8c-0.8,1.9-1.2,3.8-1.2,5.9
			c0,2,0.4,4,1.2,5.9c0.8,1.8,1.9,3.4,3.2,4.8c1.4,1.4,3,2.5,4.8,3.2c1.9,0.8,3.8,1.2,5.9,1.2c2,0,4-0.4,5.9-1.2
			c1.8-0.8,3.4-1.9,4.8-3.2c1.4-1.4,2.5-3,3.2-4.8c0.8-1.9,1.2-3.8,1.2-5.9c0-2.1-0.4-4-1.2-5.9c-0.8-1.8-1.9-3.4-3.2-4.8l0,0
			c-1.4-1.4-3-2.5-4.8-3.2c-0.5-0.2-1-0.4-1.5-0.6l-1.3,1.2l0.2,1.2l0.1,0.3c2,0.6,3.8,1.6,5.3,3.1c2.2,2.2,3.5,5.2,3.6,8.4
			c0,0.1,0,0.1,0,0.2c0,6.8-5.5,12.3-12.3,12.3l-0.2,0C14.8,41.7,10.5,39.4,8.2,34.6z"/>
		<path class="st1" d="M23.4,5.6c-2.1-2.1-5.6-2.1-7.8,0c-1.9,1.9-2.2,5.6-0.5,7.8l4.4,6.4l4.4-6.4C25.5,11.2,25.3,7.6,23.4,5.6z
			 M19.5,11.3c-1.2,0-2.1-1-2.1-2.1s1-2.1,2.1-2.1c1.2,0,2.1,1,2.1,2.1S20.6,11.3,19.5,11.3z"/>
	</g>
</g>
<g>
	<g>
		<path class="st2" d="M46.9,25.3l5.9,16.5h-3.6l-1.1-3.4h-6.4l-1.1,3.4h-3.6l5.5-15.4c0.2-0.7,0.8-1.1,1.6-1.1H46.9z M42.7,35.6
			h4.5l-2.3-7L42.7,35.6z"/>
		<path class="st2" d="M60.3,42.1c-3.9,0-5.9-2.2-6-6.6c0-4.4,2-6.6,5.9-6.7c3.1,0,4.9,1.4,5.5,4.2h-3.5c-0.4-0.9-1.1-1.3-2.1-1.3
			c-1.7,0-2.5,1.3-2.5,3.8s0.9,3.8,2.7,3.8c0.8,0,1.4-0.3,1.9-0.9c0.3-0.3,0.7-0.5,1.1-0.5h2.4C65.2,40.5,63.3,42.1,60.3,42.1z"/>
		<path class="st2" d="M73.4,31.7c-1.9,0-2.7,1.6-2.7,3.6v6.6h-3.2V25.3h1.6c1.1,0,1.6,0.6,1.6,1.6v3.8c1.6-1.9,3.7-2.4,6-1.6
			c1.8,0.7,2.6,2.4,2.5,5.2v7.4h-3.2v-6.6C76.1,33.1,75.2,31.7,73.4,31.7z"/>
		<path class="st2" d="M86.6,42.1c-3.9-0.1-5.8-2.4-5.8-6.7c0-4.4,2-6.5,5.9-6.6c4.1,0,6,2.5,5.7,7.5h-8.3c0.1,2,1,3,2.5,3
			c0.8,0,1.5-0.3,2.1-0.9c0.3-0.3,0.7-0.5,1.1-0.5h2.4C91.5,40.6,89.7,42.1,86.6,42.1z M84.2,34H89c-0.2-1.7-1-2.6-2.4-2.6
			C85.2,31.4,84.4,32.3,84.2,34z"/>
		<path class="st2" d="M95.6,25.3c1.1,0,1.6,0.5,1.5,1.6v0.9h-3.2v-2.5H95.6z M95.6,29c1,0,1.5,0.5,1.5,1.5v11.3h-3.2V29H95.6z"/>
		<path class="st3" d="M104.8,34.4V36h-6v-1.6H104.8z"/>
		<path class="st1" d="M113.9,35.9h-4.2v5.9h-3.4V27.1c0-0.9,0.8-1.8,1.7-1.8h5.6c3.5,0,5.3,1.9,5.3,5.3
			C118.9,33.9,117.2,35.9,113.9,35.9z M113,32.9c1.7,0,2.5-0.8,2.5-2.4c0-1.6-0.8-2.4-2.4-2.4h-3.4v4.8H113z"/>
		<path class="st1" d="M126.4,31.7c-1.9,0-2.7,1.6-2.7,3.6v6.6h-3.2V25.3h1.6c1.1,0,1.6,0.6,1.6,1.6v3.8c1.6-1.9,3.7-2.4,6.1-1.6
			c1.8,0.7,2.6,2.4,2.5,5.2v7.4H129v-6.6C129,33.1,128.2,31.7,126.4,31.7z"/>
		<path class="st1" d="M145.4,35.4c0,4.4-2,6.6-5.8,6.6s-5.8-2.2-5.8-6.6c0-4.5,1.9-6.7,5.8-6.7S145.4,31,145.4,35.4z M137,35.4
			c0,2.5,0.9,3.8,2.5,3.8s2.5-1.3,2.5-3.8c0-2.5-0.8-3.7-2.5-3.7C137.9,31.6,137,32.9,137,35.4z"/>
		<path class="st1" d="M156.2,41.8c-1.1-0.1-1.6-0.6-1.6-1.6v-6.6c-0.1-1.3-0.8-2-2.2-2s-2.2,0.7-2.2,2v8.2H147v-7.5
			c0-3.7,1.8-5.5,5.5-5.5s5.4,1.8,5.4,5.5v7.5H156.2z"/>
		<path class="st1" d="M165,42.1c-3.9-0.1-5.8-2.4-5.8-6.7c0-4.4,2-6.5,5.9-6.6c4.1,0,6,2.5,5.7,7.5h-8.3c0.1,2,1,3,2.5,3
			c0.8,0,1.5-0.3,2.1-0.9c0.3-0.3,0.7-0.5,1.1-0.5h2.4C169.9,40.6,168.2,42.1,165,42.1z M162.6,34h4.8c-0.2-1.7-1-2.6-2.4-2.6
			C163.7,31.4,162.8,32.3,162.6,34z"/>
	</g>
</g>
</svg>
