<?xml version="1.0" encoding="utf-8"?>
<!-- Generator: Adobe Illustrator 19.1.0, SVG Export Plug-In . SVG Version: 6.00 Build 0)  -->
<svg version="1.1" id="Layer_1" xmlns="http://www.w3.org/2000/svg" xmlns:xlink="http://www.w3.org/1999/xlink" x="0px" y="0px"
	 viewBox="0 0 175 50" style="enable-background:new 0 0 175 50;" xml:space="preserve">
<metadata><?xpacket begin="﻿" id="W5M0MpCehiHzreSzNTczkc9d"?>
<x:xmpmeta xmlns:x="adobe:ns:meta/" x:xmptk="Adobe XMP Core 5.6-c067 79.157747, 2015/03/30-23:40:42        ">
   <rdf:RDF xmlns:rdf="http://www.w3.org/1999/02/22-rdf-syntax-ns#">
      <rdf:Description rdf:about=""/>
   </rdf:RDF>
</x:xmpmeta>
                                                                                                    
                                                                                                    
                                                                                                    
                                                                                                    
                                                                                                    
                                                                                                    
                                                                                                    
                                                                                                    
                                                                                                    
                                                                                                    
                                                                                                    
                                                                                                    
                                                                                                    
                                                                                                    
                                                                                                    
                                                                                                    
                                                                                                    
                                                                                                    
                                                                                                    
                                                                                                    
                           
<?xpacket end="w"?></metadata>
<style type="text/css">
	.st0{fill:#35A8E0;}
	.st1{fill:#FFCE36;}
	.st2{fill:#93C01F;}
	.st3{fill:#337ABD;}
</style>
<g>
	<g>
		<g>
			<path class="st0" d="M55.5,20.8l7.1,19.8h-4.3L57,36.5h-7.7l-1.3,4.1h-4.3l6.6-18.5c0.3-0.9,0.9-1.3,1.9-1.3H55.5z M50.5,33.2
				h5.5l-2.7-8.4L50.5,33.2z"/>
			<path class="st0" d="M71.6,40.9c-4.7,0-7.1-2.7-7.2-8c0-5.3,2.4-7.9,7.1-8c3.7,0,5.9,1.7,6.6,5H74c-0.5-1-1.3-1.6-2.5-1.6
				c-2,0-3.1,1.5-3.1,4.6s1.1,4.6,3.2,4.6c0.9,0,1.7-0.4,2.3-1.1c0.4-0.4,0.8-0.6,1.3-0.6h2.9C77.5,39,75.2,41,71.6,40.9z"/>
			<path class="st0" d="M87.4,28.4c-2.3,0-3.3,1.9-3.3,4.3v7.9h-3.9V20.8h2c1.3,0,1.9,0.7,1.9,2v4.6c2-2.3,4.4-2.9,7.3-1.9
				c2.2,0.8,3.2,2.9,3.1,6.2v8.9h-3.8v-7.9C90.6,30.1,89.6,28.4,87.4,28.4z"/>
			<path class="st0" d="M103.3,40.9c-4.7-0.1-7-2.9-7-8.1c0-5.2,2.4-7.9,7.1-7.9c4.9,0,7.2,3,6.9,9h-10c0.1,2.4,1.2,3.6,3.1,3.6
				c0.9,0,1.7-0.4,2.5-1.1c0.3-0.4,0.8-0.6,1.3-0.6h2.9C109.2,39.1,107.1,40.9,103.3,40.9z M100.4,31.2h5.8c-0.2-2-1.2-3.1-2.9-3.1
				S100.7,29.1,100.4,31.2z"/>
			<path class="st0" d="M114.1,20.8c1.3,0,1.9,0.6,1.9,1.9v1.1h-3.9v-3H114.1z M114.1,25.2c1.3,0,1.9,0.6,1.9,1.9v13.6h-3.9V25.2
				H114.1z"/>
			<path class="st1" d="M125.2,31.7v1.9H118v-1.9H125.2z"/>
			<path class="st2" d="M136.1,40.9c-6.1,0-9.1-4-9.1-10.2c0-6.4,3.2-10.2,9.5-10.2c2.4,0,4.4,0.6,5.9,1.8c1.4,1.3,2.2,3,2.4,5.1
				h-2.4c-0.9,0-1.5-0.4-1.9-1.2c-0.7-1.4-2-2.2-3.9-2.2c-3.8,0-5.4,2.7-5.4,6.6c0,3.9,1.6,6.6,5.3,6.6c2.5,0,4-1.4,4.4-3.6h3.9
				C144.3,38.3,141.1,40.9,136.1,40.9z"/>
			<path class="st2" d="M150.6,29.2h-3.9c0.5-2.9,2.5-4.3,6-4.3c4.3,0,6.4,1.4,6.5,4.3v5.2c0,4.3-2.6,6.1-6.7,6.4
				c-3.7,0.3-6.3-1.4-6.3-4.8c0.1-3.7,2.8-4.7,6.7-5.1c1.7-0.2,2.5-0.7,2.5-1.5c-0.1-0.9-0.9-1.3-2.5-1.3
				C151.6,28.1,150.8,28.4,150.6,29.2z M155.5,34.2v-1.4c-0.9,0.4-2,0.7-3.1,0.9c-1.5,0.3-2.3,1-2.3,2.2c0.1,1.2,0.7,1.8,2,1.8
				C154.2,37.7,155.5,36.4,155.5,34.2z"/>
			<path class="st2" d="M161.1,32.6c0.1-5,2.8-7.5,7.9-7.5h0.6v4h-1.3c-2.2,0-3.2,1.1-3.2,3.4v8h-3.9V32.6z"/>
		</g>
	</g>
	<g>
		<path class="st3" d="M9.8,35c-0.6-1.5-1-3.2-1-5c0-0.1,0-0.2,0-0.2c0.1-3.3,1.4-6.5,3.8-8.8c1.6-1.6,3.5-2.7,5.6-3.3l0.1-0.3
			l0.2-1.2l-1.3-1.3c-0.5,0.2-1.1,0.4-1.6,0.6c-1.9,0.8-3.6,2-5.1,3.4C9,20.2,7.8,22,7,23.9c-0.8,2-1.3,4.1-1.3,6.2
			c0,2.2,0.4,4.3,1.3,6.2c0.8,1.9,2,3.6,3.4,5.1c1.5,1.5,3.2,2.6,5.1,3.4c2,0.8,4.1,1.3,6.2,1.3c2.2,0,4.3-0.4,6.2-1.3
			c1.9-0.8,3.6-2,5.1-3.4c1.5-1.5,2.6-3.2,3.4-5.1c0.8-2,1.3-4.1,1.3-6.2c0-2.2-0.4-4.3-1.3-6.2c-0.8-1.9-2-3.6-3.4-5.1l0,0
			c-1.5-1.5-3.2-2.6-5.1-3.4c-0.5-0.2-1.1-0.4-1.6-0.6L24.9,16l0.3,1.2l0.1,0.3c2.1,0.6,4,1.7,5.6,3.3c2.4,2.4,3.7,5.5,3.8,8.8
			c0,0.1,0,0.2,0,0.2c0,7.1-5.8,12.9-12.9,12.9l-0.2,0C16.9,42.5,12.3,40,9.8,35z"/>
		<path class="st2" d="M25.9,4.4c-2.3-2.3-5.9-2.3-8.2,0c-2,2-2.3,5.9-0.5,8.2l4.6,6.7l4.6-6.7C28.1,10.3,27.9,6.5,25.9,4.4z
			 M21.8,10.4c-1.2,0-2.3-1-2.3-2.3s1-2.3,2.3-2.3c1.2,0,2.3,1,2.3,2.3S23,10.4,21.8,10.4z"/>
	</g>
	<path class="st3" d="M34,29.6c-0.1-0.1-0.3-0.2-0.5-0.2h-2.4c-0.6-1.6-1.4-3.1-2.2-3.7c-3-2-11.1-2-14.1,0
		c-0.9,0.6-1.6,2.1-2.2,3.7h-2.4c-0.2,0-0.4,0.1-0.5,0.2c-0.1,0.1-0.2,0.3-0.1,0.5l0.4,1.7c0.1,0.3,0.3,0.5,0.6,0.5h0.7
		c-0.7,0.8-1,1.8-1,2.8c0,1.2,0.5,2.3,1.3,3.1c0,0,0,0,0,0v2.4c0,0.5,0.4,0.9,0.9,0.9h2.2c0.5,0,0.9-0.4,0.9-0.9v-1H28v1
		c0,0.5,0.4,0.9,0.9,0.9h2.2c0.5,0,0.9-0.4,0.9-0.9v-2.4c0.9-0.8,1.3-2,1.3-3.1c0-1-0.3-2.1-1.1-2.9h0.8c0.3,0,0.6-0.2,0.6-0.5
		l0.4-1.7C34.1,30,34.1,29.8,34,29.6L34,29.6z M15.7,27.3c2.4-1.6,9.6-1.6,12,0c0.5,0.3,1.1,1.6,1.6,3.1H14.1
		C14.7,28.9,15.3,27.6,15.7,27.3L15.7,27.3z M12.9,35.4c0-1,0.8-1.9,1.9-1.9c1,0,1.9,0.8,1.9,1.9c0,1-0.8,1.9-1.9,1.9
		C13.7,37.3,12.9,36.4,12.9,35.4L12.9,35.4z M28.8,37.3c-1,0-1.9-0.8-1.9-1.9c0-1,0.8-1.9,1.9-1.9c1,0,1.9,0.8,1.9,1.9
		C30.6,36.4,29.8,37.3,28.8,37.3L28.8,37.3z M28.8,37.3"/>
</g>
</svg>
