<?xml version="1.0" encoding="utf-8"?>
<!-- Generator: Adobe Illustrator 19.1.0, SVG Export Plug-In . SVG Version: 6.00 Build 0)  -->
<svg version="1.1" id="Layer_1" xmlns="http://www.w3.org/2000/svg" xmlns:xlink="http://www.w3.org/1999/xlink" x="0px" y="0px"
	 viewBox="0 0 175 50" style="enable-background:new 0 0 175 50;" xml:space="preserve">
<metadata><?xpacket begin="﻿" id="W5M0MpCehiHzreSzNTczkc9d"?>
<x:xmpmeta xmlns:x="adobe:ns:meta/" x:xmptk="Adobe XMP Core 5.6-c067 79.157747, 2015/03/30-23:40:42        ">
   <rdf:RDF xmlns:rdf="http://www.w3.org/1999/02/22-rdf-syntax-ns#">
      <rdf:Description rdf:about=""/>
   </rdf:RDF>
</x:xmpmeta>
                                                                                                    
                                                                                                    
                                                                                                    
                                                                                                    
                                                                                                    
                                                                                                    
                                                                                                    
                                                                                                    
                                                                                                    
                                                                                                    
                                                                                                    
                                                                                                    
                                                                                                    
                                                                                                    
                                                                                                    
                                                                                                    
                                                                                                    
                                                                                                    
                                                                                                    
                                                                                                    
                           
<?xpacket end="w"?></metadata>
<style type="text/css">
	.st0{fill:#283066;stroke:#283066;stroke-width:0.75;stroke-linecap:round;stroke-linejoin:round;stroke-miterlimit:10;}
	.st1{fill:#69B552;stroke:#69B552;stroke-width:0.25;stroke-linecap:round;stroke-linejoin:round;stroke-miterlimit:10;}
	.st2{fill:#2F6F52;}
	.st3{fill:#273E66;stroke:#273E66;stroke-width:0.75;stroke-linecap:round;stroke-linejoin:round;stroke-miterlimit:10;}
	.st4{fill:#275366;stroke:#275366;stroke-width:0.75;stroke-linecap:round;stroke-linejoin:round;stroke-miterlimit:10;}
	.st5{fill:#278266;stroke:#278266;stroke-width:0.75;stroke-linecap:round;stroke-linejoin:round;stroke-miterlimit:10;}
	.st6{fill:#42AE65;stroke:#42AE65;stroke-width:0.75;stroke-linecap:round;stroke-linejoin:round;stroke-miterlimit:10;}
	.st7{fill:#5EB35F;stroke:#5EB35F;stroke-width:0.75;stroke-linecap:round;stroke-linejoin:round;stroke-miterlimit:10;}
	.st8{fill:#69B552;stroke:#69B552;stroke-width:0.75;stroke-linecap:round;stroke-linejoin:round;stroke-miterlimit:10;}
</style>
<g>
	<path class="st0" d="M59.4,7H70v3.2h-7.1v2.9h6.7v3.2h-6.7v3.2h7.5v3.2H59.4V7z"/>
	<path class="st0" d="M80.8,10.8c-0.3-0.4-0.7-0.6-1.1-0.8s-0.9-0.3-1.3-0.3c-0.2,0-0.5,0-0.8,0.1S77,10,76.8,10.2
		c-0.2,0.1-0.4,0.3-0.6,0.5c-0.1,0.2-0.2,0.5-0.2,0.7c0,0.5,0.2,0.8,0.5,1.1c0.4,0.2,0.8,0.5,1.3,0.6c0.5,0.2,1.1,0.4,1.7,0.5
		c0.6,0.2,1.2,0.4,1.7,0.7c0.5,0.3,1,0.8,1.3,1.3c0.4,0.5,0.5,1.3,0.5,2.2c0,0.9-0.2,1.6-0.5,2.3c-0.3,0.6-0.8,1.2-1.3,1.6
		c-0.5,0.4-1.2,0.7-1.9,0.9S78,23,77.2,23c-1,0-1.9-0.2-2.8-0.5s-1.7-0.8-2.4-1.5l2.4-2.7c0.4,0.5,0.8,0.8,1.3,1.1s1.1,0.4,1.7,0.4
		c0.3,0,0.6,0,0.8-0.1c0.3-0.1,0.5-0.2,0.8-0.3c0.2-0.1,0.4-0.3,0.5-0.5c0.1-0.2,0.2-0.4,0.2-0.7c0-0.5-0.2-0.8-0.5-1.1
		c-0.4-0.3-0.8-0.5-1.3-0.7c-0.5-0.2-1.1-0.4-1.8-0.6c-0.6-0.2-1.2-0.4-1.8-0.8c-0.5-0.3-1-0.7-1.3-1.3c-0.4-0.5-0.5-1.2-0.5-2.1
		c0-0.8,0.2-1.6,0.5-2.2c0.3-0.6,0.8-1.2,1.3-1.6c0.5-0.4,1.2-0.7,1.9-1c0.7-0.2,1.5-0.3,2.2-0.3c0.9,0,1.7,0.1,2.5,0.4
		s1.6,0.7,2.2,1.2L80.8,10.8z"/>
	<path class="st0" d="M88.7,10.1h-4.4V7h12.3v3h-4.4v12.5h-3.4V10.1z"/>
	<path class="st0" d="M97.4,14.8c0-1.2,0.2-2.4,0.6-3.4c0.4-1,1-1.9,1.7-2.6c0.7-0.7,1.6-1.3,2.7-1.6c1-0.4,2.1-0.6,3.4-0.6
		c1.2,0,2.3,0.2,3.4,0.6c1,0.4,1.9,0.9,2.7,1.6c0.7,0.7,1.3,1.6,1.7,2.6c0.4,1,0.6,2.1,0.6,3.4s-0.2,2.4-0.6,3.4
		c-0.4,1-1,1.9-1.7,2.6c-0.7,0.7-1.6,1.3-2.7,1.6c-1,0.4-2.1,0.6-3.4,0.6c-1.2,0-2.3-0.2-3.4-0.6c-1-0.4-1.9-0.9-2.7-1.6
		c-0.7-0.7-1.3-1.6-1.7-2.6C97.7,17.2,97.4,16.1,97.4,14.8z M101,14.8c0,0.7,0.1,1.4,0.3,2s0.6,1.1,1,1.6c0.4,0.4,0.9,0.8,1.5,1
		c0.6,0.2,1.3,0.4,2,0.4c0.7,0,1.4-0.1,2-0.4c0.6-0.2,1.1-0.6,1.5-1c0.4-0.4,0.7-1,1-1.6s0.3-1.3,0.3-2c0-0.7-0.1-1.4-0.3-2
		c-0.2-0.6-0.6-1.1-1-1.6c-0.4-0.4-0.9-0.8-1.5-1s-1.3-0.4-2-0.4c-0.7,0-1.4,0.1-2,0.4s-1.1,0.6-1.5,1c-0.4,0.4-0.7,1-1,1.6
		C101.1,13.4,101,14.1,101,14.8z"/>
	<path class="st0" d="M133.5,22.6h-9.4c-1.2,0-2.3-0.2-3.4-0.5c-1-0.4-1.9-0.9-2.7-1.6c-0.7-0.7-1.3-1.5-1.8-2.5
		c-0.4-1-0.6-2.1-0.6-3.4c0-1.2,0.2-2.2,0.6-3.2s1-1.8,1.8-2.5c0.7-0.7,1.6-1.2,2.6-1.6c1-0.4,2.1-0.6,3.2-0.6
		c1.2,0,2.2,0.2,3.2,0.6c1,0.4,1.9,0.9,2.6,1.6c0.7,0.7,1.3,1.5,1.8,2.5c0.4,1,0.6,2,0.6,3.2c0,0.6-0.1,1.1-0.2,1.6
		c-0.1,0.5-0.3,1-0.6,1.5s-0.6,0.9-1,1.3c-0.4,0.4-0.9,0.7-1.4,0.9v0h4.3V22.6z M119.2,14.6c0,0.7,0.1,1.3,0.4,1.9
		c0.2,0.6,0.6,1.1,1,1.5c0.4,0.4,0.9,0.8,1.5,1s1.2,0.4,1.8,0.4c0.7,0,1.3-0.1,1.8-0.4s1.1-0.6,1.5-1c0.4-0.4,0.8-0.9,1-1.5
		c0.2-0.6,0.4-1.2,0.4-1.9s-0.1-1.3-0.4-1.9c-0.2-0.6-0.6-1.1-1-1.5c-0.4-0.4-0.9-0.8-1.5-1s-1.2-0.4-1.8-0.4
		c-0.7,0-1.3,0.1-1.8,0.4s-1.1,0.6-1.5,1c-0.4,0.4-0.8,0.9-1,1.5C119.4,13.3,119.2,13.9,119.2,14.6z"/>
	<path class="st0" d="M148.3,16.6c0,0.9-0.1,1.8-0.4,2.5c-0.3,0.8-0.7,1.4-1.2,2c-0.5,0.6-1.2,1-2.1,1.3c-0.8,0.3-1.8,0.5-2.8,0.5
		c-1.1,0-2-0.2-2.9-0.5c-0.8-0.3-1.5-0.8-2-1.3c-0.5-0.6-1-1.2-1.2-2c-0.3-0.8-0.4-1.6-0.4-2.5V7h3.4v9.4c0,0.5,0.1,0.9,0.2,1.3
		c0.2,0.4,0.4,0.8,0.6,1.1c0.3,0.3,0.6,0.5,1,0.7c0.4,0.2,0.8,0.3,1.3,0.3s0.9-0.1,1.2-0.3c0.4-0.2,0.7-0.4,1-0.7
		c0.3-0.3,0.5-0.7,0.6-1.1c0.2-0.4,0.2-0.9,0.2-1.3V7h3.4V16.6z"/>
	<path class="st0" d="M151.6,7h10.5v3.2H155v2.9h6.7v3.2H155v3.2h7.5v3.2h-10.9V7z"/>
</g>
<g>
	<path class="st1" d="M66.4,34.2c-0.4,0.5-0.9,0.9-1.5,1.2c-0.6,0.3-1.3,0.4-1.9,0.4c-0.6,0-1.2-0.1-1.8-0.3c-0.6-0.2-1-0.5-1.5-0.9
		s-0.7-0.8-1-1.4c-0.2-0.5-0.4-1.1-0.4-1.8s0.1-1.2,0.4-1.8c0.2-0.5,0.6-1,1-1.4s0.9-0.7,1.5-0.9c0.6-0.2,1.2-0.3,1.8-0.3
		c0.6,0,1.1,0.1,1.6,0.3s0.9,0.5,1.2,0.9c0.3,0.4,0.6,0.8,0.8,1.4c0.2,0.5,0.3,1.1,0.3,1.8v0.8h-5.9c0.1,0.5,0.3,0.9,0.7,1.2
		c0.3,0.3,0.8,0.4,1.3,0.4c0.4,0,0.8-0.1,1.1-0.3c0.3-0.2,0.5-0.4,0.8-0.7L66.4,34.2z M64.2,30.6c0-0.4-0.1-0.8-0.4-1.1
		c-0.3-0.3-0.7-0.5-1.1-0.5c-0.3,0-0.5,0-0.7,0.1c-0.2,0.1-0.4,0.2-0.5,0.3c-0.2,0.1-0.3,0.3-0.4,0.5c-0.1,0.2-0.1,0.4-0.1,0.6H64.2
		z"/>
	<path class="st1" d="M68.3,27.4h2.4v1.1h0c0.1-0.2,0.2-0.3,0.3-0.5s0.3-0.3,0.5-0.4s0.4-0.2,0.7-0.3c0.3-0.1,0.5-0.1,0.8-0.1
		c0.6,0,1.1,0.1,1.5,0.4c0.4,0.2,0.8,0.6,1,1.1c0.3-0.5,0.6-0.9,1.1-1.1c0.4-0.2,0.9-0.3,1.5-0.3c0.6,0,1,0.1,1.4,0.3
		c0.4,0.2,0.7,0.4,0.9,0.8c0.2,0.3,0.4,0.7,0.5,1.1s0.1,0.9,0.1,1.4v4.9h-2.5v-4.8c0-0.4-0.1-0.7-0.2-1s-0.5-0.4-0.9-0.4
		c-0.3,0-0.5,0-0.7,0.1s-0.4,0.2-0.5,0.4c-0.1,0.2-0.2,0.4-0.3,0.6c-0.1,0.2-0.1,0.5-0.1,0.7v4.3h-2.5v-4.3c0-0.1,0-0.3,0-0.5
		c0-0.2-0.1-0.4-0.1-0.6s-0.2-0.4-0.3-0.5c-0.2-0.1-0.4-0.2-0.7-0.2c-0.3,0-0.6,0.1-0.8,0.2c-0.2,0.1-0.4,0.3-0.5,0.5
		c-0.1,0.2-0.2,0.4-0.2,0.7c0,0.2-0.1,0.5-0.1,0.8v4.1h-2.5V27.4z"/>
</g>
<g>
	<path class="st2" d="M95.7,36.6c-0.2-0.5-0.4-0.9-0.7-1.2c-0.3-0.3-0.7-0.6-1.1-0.8c-0.1-0.1-0.2-0.1-0.3-0.2
		c0.4-0.2,0.7-0.5,1-0.8c0.5-0.6,0.8-1.4,0.8-2.3c0-0.9-0.2-1.6-0.5-2.1c-0.3-0.5-0.8-0.9-1.4-1.2c-0.5-0.3-1.2-0.5-1.8-0.6
		c-0.7-0.1-1.3-0.1-1.9-0.1h-4.1c-1,0-1.7,0.8-1.7,1.7v11.8c0,1,0.8,1.7,1.7,1.7h4.6c0.7,0,1.3-0.1,2-0.2c0.7-0.1,1.3-0.4,1.9-0.7
		c0.6-0.3,1-0.8,1.4-1.4c0.4-0.6,0.6-1.3,0.6-2.1C95.9,37.5,95.8,37,95.7,36.6z M90.9,38.9c-0.2,0-0.4,0.1-0.7,0.1h-1.1
		c-0.7,0-1.3-0.6-1.3-1.3v-1.2h2c0.2,0,0.5,0,0.8,0.1c0.3,0,0.5,0.1,0.7,0.2c0.2,0.1,0.4,0.2,0.5,0.4c0.1,0.1,0.2,0.3,0.2,0.6
		c0,0.2,0,0.4-0.1,0.6c-0.1,0.2-0.2,0.3-0.4,0.4C91.3,38.8,91.1,38.8,90.9,38.9z M91.1,32.3c-0.1,0.1-0.2,0.3-0.3,0.4
		c-0.2,0.1-0.3,0.2-0.5,0.2c-0.2,0-0.4,0.1-0.6,0.1h-1.9v-2.3h1.8c0.2,0,0.5,0,0.7,0.1c0.2,0,0.4,0.1,0.6,0.2
		c0.1,0.1,0.3,0.2,0.4,0.3c0.1,0.1,0.1,0.3,0.1,0.5C91.3,32,91.2,32.2,91.1,32.3z"/>
	<path class="st2" d="M105.3,27.9c-0.2-0.4-0.6-0.7-1.1-0.7h-1.6c-0.5,0-0.9,0.3-1.1,0.7l-6,14c-0.1,0.1,0,0.3,0,0.4
		c0.1,0.1,0.2,0.2,0.3,0.2h3c0.5,0,0.9-0.3,1.1-0.8l0.7-1.8c0.1-0.3,0.4-0.5,0.7-0.5h4c0.3,0,0.6,0.2,0.7,0.5l0.7,1.8
		c0.2,0.4,0.6,0.7,1.1,0.7h3.1c0.1,0,0.3-0.1,0.3-0.2c0.1-0.1,0.1-0.3,0-0.4L105.3,27.9z M104.6,35.9h-2.4l1.2-3L104.6,35.9z"/>
	<path class="st2" d="M121.5,37c-0.2-0.4-0.1-0.9,0.3-1.1c0.5-0.3,0.9-0.6,1.3-1.1c0.6-0.8,0.9-1.7,0.9-2.8c0-0.9-0.2-1.7-0.5-2.3
		c-0.3-0.6-0.8-1.1-1.3-1.5c-0.5-0.4-1.2-0.6-1.9-0.8c-0.7-0.1-1.4-0.2-2.2-0.2h-4.8c-0.6,0-1.2,0.5-1.2,1.2v12.9
		c0,0.6,0.5,1.2,1.2,1.2h1.6c0.6,0,1.2-0.5,1.2-1.2v-4.6h0.9l2.7,5.1c0.2,0.4,0.6,0.6,1,0.6h3.3c0.1,0,0.3-0.1,0.3-0.2
		c0.1-0.1,0.1-0.3,0-0.4L121.5,37z M116.1,30.7h1.7c0.3,0,0.5,0,0.8,0.1c0.3,0,0.5,0.1,0.7,0.2c0.2,0.1,0.3,0.2,0.4,0.4
		c0.1,0.1,0.2,0.4,0.2,0.7c0,0.3-0.1,0.5-0.2,0.7c-0.1,0.2-0.3,0.3-0.5,0.4c-0.2,0.1-0.5,0.1-0.7,0.2c-0.3,0-0.6,0-0.9,0h-1.5V30.7z
		"/>
	<path class="st2" d="M146.8,27.8c-0.2-0.4-0.6-0.6-1-0.6h-1.8c-0.4,0-0.8,0.3-1,0.6l-5.3,12.3c-0.2,0.5-0.9,0.5-1.2,0.1l-2-3.3
		c-0.2-0.3-0.1-0.8,0.2-0.9c0.6-0.3,1-0.6,1.4-1.1c0.6-0.8,0.9-1.7,0.9-2.8c0-0.9-0.2-1.7-0.5-2.3c-0.3-0.6-0.8-1.1-1.3-1.5
		c-0.5-0.4-1.2-0.6-1.9-0.8c-0.7-0.1-1.4-0.2-2.2-0.2h-4.9c-0.6,0-1.1,0.5-1.1,1.1v13.1c0,0.6,0.5,1.1,1.1,1.1h1.9
		c0.6,0,1.1-0.5,1.1-1.1v-4.7h0.9l2.7,5.2c0.2,0.4,0.5,0.6,0.9,0.6h3.4c0,0,0,0,0.1,0c0,0,0,0,0.1,0h3.1c0.4,0,0.8-0.3,1-0.7l0.8-2
		c0.1-0.3,0.3-0.4,0.6-0.4h4.2c0.3,0,0.5,0.2,0.6,0.4l0.8,2c0.2,0.4,0.6,0.7,1,0.7h3.1c0.1,0,0.3-0.1,0.3-0.2c0.1-0.1,0.1-0.3,0-0.4
		L146.8,27.8z M146.1,35.9h-2.4l1.2-3L146.1,35.9z M129.3,30.7h1.7c0.3,0,0.5,0,0.8,0.1c0.3,0,0.5,0.1,0.7,0.2
		c0.2,0.1,0.3,0.2,0.4,0.4c0.1,0.1,0.2,0.4,0.2,0.7c0,0.3-0.1,0.5-0.2,0.7c-0.1,0.2-0.3,0.3-0.5,0.4c-0.2,0.1-0.5,0.1-0.7,0.2
		c-0.3,0-0.6,0-0.9,0h-1.5V30.7z"/>
	<path class="st2" d="M163.2,35.4c-0.4-0.6-0.8-1-1.4-1.3c-0.5-0.3-1.1-0.6-1.7-0.7c-0.6-0.2-1.1-0.3-1.6-0.5
		c-0.5-0.2-0.8-0.3-1.1-0.5c-0.2-0.2-0.3-0.4-0.3-0.7c0-0.2,0-0.3,0.1-0.5c0.1-0.1,0.2-0.3,0.4-0.3c0.2-0.1,0.4-0.2,0.6-0.2
		c0.6-0.1,1.1-0.1,1.7,0.1c0.4,0.1,0.7,0.3,0.9,0.6c0.1,0.1,0.2,0.1,0.3,0.2c0.1,0,0.2,0,0.3-0.1l2.2-2.4c0.1-0.1,0.1-0.2,0.1-0.3
		c0-0.1-0.1-0.2-0.1-0.3c-0.7-0.6-1.4-1-2.2-1.2c-1.5-0.5-3.2-0.5-4.7,0c-0.7,0.2-1.3,0.5-1.9,1c-0.6,0.4-1,1-1.3,1.6
		c-0.3,0.6-0.5,1.4-0.5,2.2c0,0.9,0.2,1.6,0.6,2.2c0.4,0.5,0.8,1,1.4,1.3c0.5,0.3,1.1,0.6,1.7,0.8c0.6,0.2,1.1,0.4,1.6,0.5
		c0.5,0.2,0.8,0.4,1.1,0.6c0.2,0.2,0.3,0.4,0.3,0.7c0,0.2,0,0.3-0.1,0.5c-0.1,0.1-0.2,0.3-0.4,0.3c-0.2,0.1-0.4,0.2-0.6,0.2
		c-0.7,0.2-1.4,0.1-2.1-0.2c-0.4-0.2-0.8-0.5-1.1-0.9c-0.1-0.1-0.2-0.2-0.3-0.2c-0.1,0-0.2,0-0.3,0.1l-1.8,2
		c-0.4,0.5-0.3,1.2,0.2,1.6c0.6,0.4,1.2,0.8,1.8,1c0.8,0.3,1.8,0.5,2.7,0.5c0.8,0,1.5-0.1,2.2-0.3c0.7-0.2,1.4-0.5,1.9-0.9
		c0.6-0.4,1-1,1.3-1.6c0.3-0.7,0.5-1.4,0.5-2.3C163.8,36.7,163.6,36,163.2,35.4z"/>
</g>
<rect x="52.1" y="6.8" class="st0" width="1.3" height="36.2"/>
<rect x="46.6" y="6.8" class="st3" width="1.9" height="36.2"/>
<rect x="40.4" y="6.8" class="st4" width="2.5" height="36.2"/>
<rect x="34.1" y="6.8" class="st5" width="2.8" height="36.2"/>
<rect x="27.2" y="6.8" class="st6" width="3.3" height="36.2"/>
<rect x="20" y="6.8" class="st7" width="3.6" height="36.2"/>
<rect x="12.6" y="6.8" class="st8" width="3.8" height="36.2"/>
</svg>
