<?xml version="1.0" encoding="utf-8"?>
<!-- Generator: Adobe Illustrator 19.1.0, SVG Export Plug-In . SVG Version: 6.00 Build 0)  -->
<svg version="1.1" id="Layer_1" xmlns="http://www.w3.org/2000/svg" xmlns:xlink="http://www.w3.org/1999/xlink" x="0px" y="0px"
	 viewBox="0 0 175 50" style="enable-background:new 0 0 175 50;" xml:space="preserve">
<metadata><?xpacket begin="﻿" id="W5M0MpCehiHzreSzNTczkc9d"?>
<x:xmpmeta xmlns:x="adobe:ns:meta/" x:xmptk="Adobe XMP Core 5.6-c067 79.157747, 2015/03/30-23:40:42        ">
   <rdf:RDF xmlns:rdf="http://www.w3.org/1999/02/22-rdf-syntax-ns#">
      <rdf:Description rdf:about=""/>
   </rdf:RDF>
</x:xmpmeta>
                                                                                                    
                                                                                                    
                                                                                                    
                                                                                                    
                                                                                                    
                                                                                                    
                                                                                                    
                                                                                                    
                                                                                                    
                                                                                                    
                                                                                                    
                                                                                                    
                                                                                                    
                                                                                                    
                                                                                                    
                                                                                                    
                                                                                                    
                                                                                                    
                                                                                                    
                                                                                                    
                           
<?xpacket end="w"?></metadata>
<style type="text/css">
	.st0{fill:#FFCE36;}
	.st1{fill:#3C3C3B;stroke:#3C3C3B;stroke-width:0.5;stroke-linecap:round;stroke-linejoin:round;stroke-miterlimit:10;}
	.st2{fill:#3C3C3B;stroke:#3C3C3B;stroke-width:0.5;stroke-miterlimit:10;}
</style>
<path class="st0" d="M47.8,41.3H28.6c-3.3,0-5.9-2.6-5.9-5.9V16.2c0-3.3,2.6-5.9,5.9-5.9h19.2c3.3,0,5.9,2.6,5.9,5.9v19.2
	C53.7,38.7,51.1,41.3,47.8,41.3z"/>
<g>
	<path class="st1" d="M32.3,18.7c1.6,0,3,0.4,4.1,1.2c1.1,0.8,1.6,2,1.7,3.6h-1.7c-0.5,0-0.9-0.2-1.2-0.7c-0.5-1.1-1.5-1.7-2.8-1.7
		c-2.4,0-3.6,1.5-3.6,4.5c0,3,1.2,4.6,3.7,4.8c1.9,0,3-1.3,3.3-2.9h-1.7c-0.8,0-1.4-0.6-1.4-1.4v-0.9h5.6v7.4h-0.7
		c-0.7,0-1.3-0.4-1.4-1.1L36.1,31c-1,1.3-2,1.9-3.9,1.9c-3.9,0-6.3-3-6.3-7.1C25.8,21.8,28.2,18.6,32.3,18.7z"/>
	<path class="st1" d="M41.1,19h9.5v2.4h-4.1v11.3h-2.8V21.4h-4.1v-1C39.7,19.6,40.3,19,41.1,19z"/>
</g>
<g>
	<path class="st2" d="M69.7,16.7c2.2,0,4.1,0.6,5.7,1.7c1.4,1.2,2.2,2.8,2.4,4.9h-2.4c-0.7,0-1.2-0.3-1.7-1c-0.7-1.5-2-2.3-3.9-2.3
		c-3.2,0-4.9,2-4.9,6.2c0,4.1,1.7,6.3,5.1,6.6c2.6,0,4.1-1.7,4.5-4h-2.3c-1.1,0-1.9-0.9-1.9-1.9v-1.2H78v10.1h-1
		c-0.9,0-1.8-0.6-1.9-1.5L75,33.4c-1.3,1.7-2.7,2.7-5.4,2.7c-5.4,0-8.6-4.2-8.6-9.7C60.9,20.8,64.2,16.5,69.7,16.7z"/>
	<path class="st2" d="M79.7,26.4c0-5.7,3.4-9.7,9-9.7c5.6,0,9,4,9,9.7c0,5.8-3.3,9.7-9,9.7C82.9,36.1,79.7,32.1,79.7,26.4z
		 M83.5,26.4c0,3.7,1.6,6.4,5.1,6.4c3.5,0,5.2-2.7,5.2-6.4c0-3.7-1.7-6.3-5.2-6.3C85.1,20,83.5,22.7,83.5,26.4z"/>
	<path class="st0" d="M100.6,17h13v3.3h-5.5v15.4h-3.8V20.3h-5.5V19C98.7,17.9,99.5,17,100.6,17z"/>
	<path class="st0" d="M122.7,17l6.7,18.8h-4.1l-1.2-3.8h-7.3l-1.2,3.8h-4.1l6.3-17.5c0.3-0.8,0.9-1.2,1.8-1.2H122.7z M117.9,28.8
		h5.2l-2.6-8L117.9,28.8z"/>
	<path class="st0" d="M147.6,17l-5.9,9.2l5.9,9.6h-4.5l-3.8-6.5l-3.8,6.5H131l5.9-9.6L131,17h4.4l3.8,6.6l3.3-5.6
		c0.3-0.6,0.9-1,1.7-1H147.6z"/>
	<path class="st0" d="M149.2,19c0-1.3,0.6-2,1.9-2h1.9v18.8h-3.8V19z"/>
</g>
</svg>
