<?xml version="1.0" encoding="utf-8"?>
<!-- Generator: Adobe Illustrator 19.1.0, SVG Export Plug-In . SVG Version: 6.00 Build 0)  -->
<svg version="1.1" id="Layer_1" xmlns="http://www.w3.org/2000/svg" xmlns:xlink="http://www.w3.org/1999/xlink" x="0px" y="0px"
	 viewBox="0 0 175 50" style="enable-background:new 0 0 175 50;" xml:space="preserve">
<metadata><?xpacket begin="﻿" id="W5M0MpCehiHzreSzNTczkc9d"?>
<x:xmpmeta xmlns:x="adobe:ns:meta/" x:xmptk="Adobe XMP Core 5.6-c067 79.157747, 2015/03/30-23:40:42        ">
   <rdf:RDF xmlns:rdf="http://www.w3.org/1999/02/22-rdf-syntax-ns#">
      <rdf:Description rdf:about=""/>
   </rdf:RDF>
</x:xmpmeta>
                                                                                                    
                                                                                                    
                                                                                                    
                                                                                                    
                                                                                                    
                                                                                                    
                                                                                                    
                                                                                                    
                                                                                                    
                                                                                                    
                                                                                                    
                                                                                                    
                                                                                                    
                                                                                                    
                                                                                                    
                                                                                                    
                                                                                                    
                                                                                                    
                                                                                                    
                                                                                                    
                           
<?xpacket end="w"?></metadata>
<style type="text/css">
	.st0{fill:#F8B133;}
	.st1{fill:#3A4293;stroke:#3A4293;stroke-width:0.5;stroke-linecap:round;stroke-linejoin:round;stroke-miterlimit:10;}
	.st2{fill:#3A4293;}
</style>
<path class="st0" d="M12.7,17.3H4.1c-1.2,0-2.1,0.9-2.1,2.1v0.4c0,1.2,0.9,2.1,2.1,2.1H10v2.6H4.7c-1.2,0-2.1,0.9-2.1,2.1v0.4
	c0,1.2,0.9,2.1,2.1,2.1h3.6c0.9,0,1.6,0.7,1.6,1.6v3.2c0,1.2,0.9,2.1,2.1,2.1h0.7c1.2,0,2.1-0.9,2.1-2.1V19.4
	C14.9,18.2,13.9,17.3,12.7,17.3z"/>
<g>
	<g>
		<path class="st1" d="M30.9,21.6H38v2.2h-4.8V26h4.5v2.2h-4.5v4.2h-2.4V21.6z"/>
		<path class="st1" d="M39.7,21.6h2.4v10.7h-2.4V21.6z"/>
		<path class="st1" d="M44.2,21.6h3.5c0.9,0,1.7,0.1,2.4,0.3c0.8,0.2,1.4,0.5,2,0.9s1,1,1.4,1.7c0.3,0.7,0.5,1.5,0.5,2.5
			c0,0.9-0.2,1.6-0.5,2.3c-0.3,0.7-0.8,1.2-1.3,1.7c-0.6,0.4-1.2,0.8-1.9,1c-0.7,0.2-1.5,0.3-2.3,0.3h-3.9V21.6z M46.6,30.2h1.2
			c0.5,0,1.1-0.1,1.5-0.2c0.5-0.1,0.9-0.3,1.2-0.6c0.3-0.3,0.6-0.6,0.8-1c0.2-0.4,0.3-0.9,0.3-1.5c0-0.5-0.1-1-0.3-1.4
			c-0.2-0.4-0.5-0.7-0.8-1c-0.3-0.3-0.7-0.4-1.2-0.6s-0.9-0.2-1.4-0.2h-1.4V30.2z"/>
		<path class="st1" d="M55.8,21.6H63v2.2h-4.9v2h4.6V28h-4.6v2.2h5.2v2.2h-7.5V21.6z"/>
		<path class="st1" d="M65.3,21.6h2.4v8.5H72v2.2h-6.7V21.6z"/>
		<path class="st1" d="M73.3,21.6h2.4v10.7h-2.4V21.6z"/>
		<path class="st1" d="M77.8,21.6h3.5c0.9,0,1.7,0.1,2.4,0.3c0.8,0.2,1.4,0.5,2,0.9s1,1,1.4,1.7c0.3,0.7,0.5,1.5,0.5,2.5
			c0,0.9-0.2,1.6-0.5,2.3c-0.3,0.7-0.8,1.2-1.3,1.7c-0.6,0.4-1.2,0.8-1.9,1c-0.7,0.2-1.5,0.3-2.3,0.3h-3.9V21.6z M80.1,30.2h1.2
			c0.5,0,1.1-0.1,1.5-0.2c0.5-0.1,0.9-0.3,1.2-0.6c0.3-0.3,0.6-0.6,0.8-1c0.2-0.4,0.3-0.9,0.3-1.5c0-0.5-0.1-1-0.3-1.4
			c-0.2-0.4-0.5-0.7-0.8-1c-0.3-0.3-0.7-0.4-1.2-0.6s-0.9-0.2-1.4-0.2h-1.4V30.2z"/>
		<path class="st1" d="M92.8,21.6h1.9l4.7,10.7h-2.7l-0.9-2.3h-4.2l-0.9,2.3h-2.6L92.8,21.6z M93.7,24.8l-1.3,3.3H95L93.7,24.8z"/>
		<path class="st1" d="M100.5,21.6h3.5c0.9,0,1.7,0.1,2.4,0.3s1.4,0.5,2,0.9s1,1,1.4,1.7c0.3,0.7,0.5,1.5,0.5,2.5
			c0,0.9-0.2,1.6-0.5,2.3c-0.3,0.7-0.8,1.2-1.3,1.7c-0.6,0.4-1.2,0.8-1.9,1c-0.7,0.2-1.5,0.3-2.3,0.3h-3.9V21.6z M102.8,30.2h1.2
			c0.5,0,1.1-0.1,1.5-0.2c0.5-0.1,0.9-0.3,1.2-0.6s0.6-0.6,0.8-1s0.3-0.9,0.3-1.5c0-0.5-0.1-1-0.3-1.4s-0.5-0.7-0.8-1
			c-0.3-0.3-0.7-0.4-1.2-0.6s-0.9-0.2-1.4-0.2h-1.4V30.2z"/>
		<path class="st1" d="M112,21.6h7.3v2.2h-4.9v2h4.6V28h-4.6v2.2h5.2v2.2H112V21.6z"/>
	</g>
</g>
<g>
	<path class="st0" d="M121.4,21.3h3.3c0.4,0,0.9,0,1.3,0.1c0.4,0.1,0.8,0.2,1.2,0.4c0.4,0.2,0.6,0.5,0.9,0.9
		c0.2,0.4,0.3,0.9,0.3,1.6c0,0.6-0.2,1.1-0.5,1.5c-0.3,0.4-0.9,0.7-1.5,0.9v0c0.4,0,0.7,0.1,1,0.3s0.6,0.3,0.8,0.6s0.4,0.5,0.5,0.9
		s0.2,0.7,0.2,1.1c0,0.7-0.1,1.2-0.4,1.6s-0.6,0.7-1,1c-0.4,0.2-0.8,0.4-1.2,0.5c-0.4,0.1-0.9,0.1-1.3,0.1h-3.7V21.3z M122.5,26.2
		h2.2c0.5,0,1-0.1,1.3-0.2s0.6-0.3,0.8-0.5c0.2-0.2,0.3-0.4,0.4-0.6c0.1-0.2,0.1-0.4,0.1-0.6c0-0.4-0.1-0.7-0.2-1s-0.3-0.5-0.5-0.6
		c-0.2-0.2-0.5-0.3-0.8-0.3c-0.3-0.1-0.6-0.1-1-0.1h-2.4V26.2z M122.5,31.7h2.4c0.6,0,1.1-0.1,1.5-0.2c0.4-0.2,0.7-0.3,0.9-0.6
		s0.3-0.5,0.4-0.7c0.1-0.3,0.1-0.5,0.1-0.7c0-0.4-0.1-0.8-0.2-1.1c-0.2-0.3-0.4-0.5-0.6-0.7s-0.6-0.3-0.9-0.4
		c-0.3-0.1-0.7-0.1-1-0.1h-2.6V31.7z"/>
	<path class="st0" d="M131.6,21.3h3c0.2,0,0.4,0,0.6,0s0.5,0,0.8,0.1s0.6,0.1,0.9,0.3c0.3,0.1,0.6,0.3,0.8,0.5
		c0.2,0.2,0.5,0.5,0.6,0.9c0.2,0.3,0.2,0.8,0.2,1.3c0,0.5-0.1,1-0.3,1.4c-0.2,0.4-0.4,0.6-0.7,0.9c-0.3,0.2-0.6,0.4-0.9,0.5
		s-0.7,0.2-1,0.2l3.3,5.5h-1.2l-3.2-5.4h-2v5.4h-1.1V21.3z M132.7,26.3h2.3c0.6,0,1-0.1,1.4-0.2c0.3-0.1,0.6-0.3,0.8-0.5
		c0.2-0.2,0.3-0.4,0.4-0.7c0.1-0.2,0.1-0.5,0.1-0.6c0-0.2,0-0.4-0.1-0.6c-0.1-0.2-0.2-0.5-0.4-0.7c-0.2-0.2-0.5-0.4-0.8-0.5
		c-0.4-0.1-0.8-0.2-1.4-0.2h-2.3V26.3z"/>
	<path class="st0" d="M144.7,21.3h1.1l4.8,11.4h-1.2l-1.2-3h-6.1l-1.3,3h-1.1L144.7,21.3z M145.2,22.4l-2.7,6.3h5.3L145.2,22.4z"/>
	<path class="st0" d="M152.6,30.6c0.3,0.5,0.6,0.8,1.1,1.1s1,0.4,1.5,0.4c0.4,0,0.7-0.1,1-0.2c0.3-0.1,0.6-0.3,0.8-0.5
		c0.2-0.2,0.4-0.4,0.5-0.7c0.1-0.3,0.2-0.6,0.2-0.9c0-0.4-0.1-0.7-0.2-1s-0.4-0.5-0.7-0.6c-0.3-0.2-0.6-0.3-0.9-0.4
		c-0.4-0.1-0.7-0.2-1.1-0.4c-0.4-0.1-0.7-0.3-1.1-0.4c-0.4-0.2-0.7-0.3-0.9-0.6s-0.5-0.5-0.7-0.9c-0.2-0.4-0.2-0.8-0.2-1.4
		c0-0.5,0.1-1,0.3-1.3c0.2-0.4,0.5-0.7,0.8-1c0.3-0.3,0.7-0.5,1.2-0.6c0.4-0.1,0.9-0.2,1.4-0.2c0.6,0,1.2,0.1,1.7,0.3
		c0.5,0.2,1,0.6,1.4,1.1l-0.9,0.7c-0.3-0.4-0.6-0.7-0.9-0.8c-0.4-0.2-0.8-0.3-1.3-0.3c-0.3,0-0.7,0-1,0.1c-0.3,0.1-0.6,0.2-0.8,0.4
		c-0.2,0.2-0.4,0.4-0.6,0.7c-0.1,0.3-0.2,0.6-0.2,1c0,0.6,0.1,1,0.4,1.3s0.7,0.5,1.1,0.7s0.9,0.3,1.4,0.5s1,0.3,1.4,0.5
		c0.4,0.2,0.8,0.5,1.1,0.9s0.4,1,0.4,1.7c0,0.5-0.1,1-0.3,1.4c-0.2,0.4-0.5,0.7-0.8,1c-0.3,0.3-0.7,0.5-1.1,0.6
		c-0.4,0.1-0.9,0.2-1.3,0.2c-0.8,0-1.4-0.1-2.1-0.4c-0.6-0.3-1.2-0.7-1.6-1.3L152.6,30.6z"/>
	<path class="st0" d="M161.2,21.3h1.1v11.4h-1.1V21.3z"/>
	<path class="st0" d="M165.4,21.3h1.1v10.5h5.3v1h-6.4V21.3z"/>
</g>
<path class="st2" d="M24.5,28.7c-0.2-0.6-0.5-1.1-0.9-1.5c-0.4-0.4-0.8-0.8-1.4-1c-0.1-0.1-0.2-0.1-0.4-0.2c0.4-0.3,0.8-0.6,1.2-1
	c0.6-0.7,1-1.7,1-2.8c0-1.1-0.2-1.9-0.7-2.6c-0.4-0.7-1-1.2-1.7-1.5c-0.7-0.3-1.4-0.6-2.2-0.7c-0.8-0.1-1.6-0.2-2.4-0.2h-5
	c-1.2,0-2.1,1-2.1,2.1v14.4c0,1.2,1,2.1,2.1,2.1h5.6c0.8,0,1.6-0.1,2.5-0.3c0.8-0.2,1.6-0.5,2.3-0.9c0.7-0.4,1.3-1,1.7-1.7
	c0.5-0.7,0.7-1.6,0.7-2.6C24.8,29.9,24.7,29.3,24.5,28.7z M18.6,31.5c-0.3,0.1-0.5,0.1-0.8,0.1h-1.4c-0.9,0-1.6-0.7-1.6-1.6v-1.4
	h2.4c0.3,0,0.6,0,1,0.1c0.3,0,0.6,0.1,0.9,0.2c0.2,0.1,0.4,0.2,0.6,0.4c0.1,0.2,0.2,0.4,0.2,0.7c0,0.3-0.1,0.5-0.2,0.7
	c-0.1,0.2-0.3,0.4-0.5,0.5C19.1,31.4,18.9,31.5,18.6,31.5z M19,23.5c-0.1,0.2-0.2,0.3-0.4,0.4c-0.2,0.1-0.4,0.2-0.6,0.3
	c-0.3,0.1-0.5,0.1-0.8,0.1h-2.3v-2.8H17c0.3,0,0.6,0,0.8,0.1c0.3,0,0.5,0.1,0.7,0.2c0.2,0.1,0.3,0.2,0.4,0.4
	c0.1,0.2,0.2,0.4,0.2,0.6C19.1,23.2,19.1,23.4,19,23.5z"/>
</svg>
